<svg version="1.1" id="Layer_1" xmlns="http://www.w3.org/2000/svg" xmlns:xlink="http://www.w3.org/1999/xlink" x="0px" y="0px"
	 width="100%" viewBox="0 0 612 408" enable-background="new 0 0 612 408" xml:space="preserve">
<path fill="#000000" opacity="1.000000" stroke="none" 
	d="
M326.000000,409.000000 
	C217.359818,409.000000 109.219650,409.000000 1.039738,409.000000 
	C1.039738,273.059814 1.039738,137.119598 1.039738,1.089700 
	C204.890198,1.089700 408.780457,1.089700 612.835327,1.089700 
	C612.835327,136.999847 612.835327,272.999908 612.835327,409.000000 
	C517.452881,409.000000 421.976440,409.000000 326.000000,409.000000 
M294.027222,237.981537 
	C294.027222,237.981537 294.099396,237.979599 294.018250,237.352158 
	C293.694824,236.876694 293.371429,236.401215 293.015320,235.995010 
	C293.015320,235.995010 293.081451,235.956375 293.003845,235.223877 
	C291.694855,232.447037 290.385864,229.670181 289.037872,226.254044 
	C288.644745,225.535568 288.251648,224.817108 287.920410,223.527039 
	C287.620300,223.313416 287.320221,223.099808 286.933960,222.461472 
	C286.933960,222.461472 286.794586,222.051147 286.866333,221.525162 
	C286.587646,221.330322 286.308929,221.135483 286.007965,221.000900 
	C286.007965,221.000900 286.059204,220.962143 286.011017,220.281937 
	C285.356537,219.169205 284.702057,218.056473 284.011902,217.001526 
	C284.011902,217.001526 284.075775,216.978424 283.996674,216.163361 
	C280.635376,211.676636 276.285553,215.018311 272.564545,214.104660 
	C272.296021,215.002060 272.124969,215.308228 272.124054,215.614914 
	C272.079803,230.380569 272.247253,245.150833 271.903107,259.909210 
	C271.795013,264.543274 273.815826,264.976318 277.531586,265.080780 
	C281.546509,265.193604 283.231049,264.100922 283.044830,259.778931 
	C282.732056,252.519470 282.959259,245.236710 282.959259,237.278168 
	C285.269409,241.427383 287.125244,244.760559 289.039062,248.828903 
	C289.696716,250.487946 289.957825,252.531433 291.105591,253.715302 
	C292.799194,255.462189 294.973663,257.248535 297.231323,257.769073 
	C298.795013,258.129578 301.730255,256.889099 302.522278,255.494690 
	C305.924316,249.505157 308.760010,243.193924 312.160431,236.270172 
	C312.160431,243.541992 312.440582,250.176758 312.084930,256.777283 
	C311.696533,263.985535 312.653290,265.218750 320.769073,264.903717 
	C321.502075,263.628693 322.858856,262.360291 322.872498,261.077637 
	C323.025482,246.688324 322.989899,232.296738 322.936584,217.906021 
	C322.932617,216.840866 322.512848,214.904037 322.098358,214.851334 
	C318.690674,214.418167 315.130707,213.782700 311.853271,214.421371 
	C310.563477,214.672699 309.874603,218.007690 308.950073,220.002609 
	C308.950073,220.002609 308.951630,219.928101 308.469086,220.114685 
	C308.383392,220.419067 308.297729,220.723465 308.068878,221.440353 
	C308.068878,221.440353 307.978638,221.867554 307.351257,222.128906 
	C307.285156,222.771072 307.219055,223.413223 306.836151,224.700592 
	C303.971039,230.405914 301.105896,236.111237 297.483063,243.325424 
	C296.393463,241.549438 295.628998,240.303345 294.924011,238.503769 
	C294.627777,238.305771 294.331573,238.107788 294.027222,237.981537 
M431.230835,254.061859 
	C430.341248,254.405365 428.921906,254.520523 428.657654,255.133575 
	C427.724884,257.297485 426.090729,260.109253 426.811707,261.766602 
	C427.522095,263.399658 430.706055,264.558044 432.921112,264.784088 
	C435.736908,265.071411 437.355377,263.162750 436.939606,259.343414 
	C435.278107,257.627808 433.616638,255.912186 431.230835,254.061859 
M459.984070,236.768875 
	C460.640106,237.202393 461.296143,237.635910 461.991089,238.001343 
	C461.991089,238.001343 461.928589,238.048721 461.995514,238.748047 
	C462.148804,242.696777 459.669739,241.438080 457.476562,241.145874 
	C448.277039,239.920197 441.316284,245.122711 440.008881,254.230316 
	C439.742371,256.086945 439.172821,258.645416 440.095184,259.800476 
	C444.476807,265.287262 450.883575,265.910797 457.077423,264.643463 
	C460.301758,263.983704 463.061279,263.527802 466.863953,264.991852 
	C470.758972,265.551788 472.209473,263.931549 472.059998,259.969940 
	C471.808044,253.291977 471.870239,246.595810 472.008850,239.911621 
	C472.106934,235.180298 469.798096,231.685959 465.830292,230.141983 
	C462.180145,228.721603 457.962158,228.760437 453.187256,228.015396 
	C450.195465,229.104996 446.640747,229.544250 444.391327,231.491440 
	C442.614380,233.029633 442.442169,236.421616 441.557281,238.990341 
	C444.721771,239.104813 449.493713,240.551529 450.726044,239.064636 
	C453.549347,235.658112 456.528503,235.991364 459.984711,236.000320 
	C459.984711,236.000320 459.898865,236.090073 459.984070,236.768875 
M288.219788,198.759476 
	C291.951477,199.476395 295.669495,200.302399 299.431915,200.774170 
	C299.910339,200.834167 300.621002,199.042038 301.921173,198.186295 
	C306.946442,201.847321 312.044708,202.014526 316.823883,197.960556 
	C320.793060,194.593689 323.363312,190.344238 323.761230,185.152603 
	C331.649933,187.399246 338.123199,182.880783 337.938263,175.092957 
	C337.874420,172.405884 337.906799,169.926422 340.691345,167.633835 
	C341.069061,166.082535 341.446808,164.531250 341.948853,162.116013 
	C341.857086,158.136688 341.765350,154.157364 341.901794,149.324814 
	C342.096588,144.859390 342.045074,140.124573 337.277039,138.126785 
	C330.251160,135.182968 331.737946,130.502579 333.809540,125.388657 
	C333.869843,125.239738 333.860718,125.062706 334.192474,124.315361 
	C336.050781,121.149925 339.320404,124.627831 340.753448,123.296700 
	C343.472168,120.771309 347.714050,118.485016 345.294098,112.511078 
	C342.449005,112.511078 339.219452,112.314308 336.043762,112.640800 
	C335.182587,112.729340 334.467926,114.386208 333.714294,115.345451 
	C332.488251,116.905914 331.285522,118.484695 329.749725,119.438110 
	C326.873535,114.751595 322.326385,115.741516 317.931793,115.235443 
	C312.305511,110.580490 305.818604,109.660225 301.196228,112.914673 
	C300.124725,112.593536 299.053223,112.272400 297.659119,111.256065 
	C293.514740,109.227417 289.472748,109.042610 286.018738,112.505013 
	C282.626617,115.905411 279.091278,119.388573 280.240906,125.278824 
	C278.306549,125.511818 276.374908,125.771065 274.437317,125.973190 
	C266.906281,126.758835 262.673248,134.125916 265.189240,141.048981 
	C263.801483,142.016617 261.661194,142.695572 261.159546,144.003159 
	C259.249054,148.982864 258.953186,154.087341 261.950073,159.640808 
	C261.739532,160.432465 261.569550,161.237595 261.312073,162.013687 
	C259.135284,168.575546 260.733521,173.183395 267.144318,175.964951 
	C274.991974,179.369934 283.143768,178.836243 291.211212,176.255417 
	C292.142944,175.957367 293.202271,176.058136 294.202454,175.973999 
	C294.218018,177.041016 294.667175,178.406052 294.174072,179.123474 
	C292.034363,182.236435 290.074097,185.727951 287.203491,188.026321 
	C282.336945,191.922699 279.751587,190.637665 277.972565,184.369675 
	C277.656250,183.255173 277.470276,181.590805 276.719727,181.230194 
	C275.536072,180.661499 273.925049,180.982346 272.494934,180.926636 
	C272.750488,184.391708 272.233093,188.165833 273.462769,191.241425 
	C274.907471,194.854797 278.246338,196.944992 282.693268,195.627747 
	C284.027649,195.232452 285.473083,195.211990 286.830048,195.592697 
	C287.191437,196.409531 287.552826,197.226364 288.219788,198.759476 
M485.768890,263.596405 
	C485.832458,252.748596 485.912079,241.900787 485.917053,231.052963 
	C485.917328,230.443665 485.303040,229.834076 484.241852,229.072937 
	C483.499695,229.119003 482.757538,229.165085 481.341675,229.089188 
	C480.888855,229.129898 480.436005,229.170593 479.239502,229.052109 
	C478.488586,229.128174 477.737640,229.204239 476.395416,229.172302 
	C476.109528,229.284500 475.582581,229.378052 475.572266,229.511551 
	C475.004852,236.850021 474.356659,244.186142 474.020630,251.536423 
	C473.905365,254.057953 474.582062,256.615692 475.023926,259.902710 
	C477.338989,265.591888 479.123932,266.319122 485.768890,263.596405 
M336.500092,228.520203 
	C329.620422,227.398422 327.751251,228.401947 328.038849,232.857101 
	C328.447723,239.191895 328.909332,245.536545 328.920502,251.877716 
	C328.925476,254.703812 327.550568,257.521088 327.460632,260.363190 
	C327.413239,261.860687 328.460358,264.400085 329.566895,264.758118 
	C335.356323,266.631500 337.943481,264.523163 337.971680,258.484314 
	C337.978607,256.994385 337.935883,255.504227 337.961823,253.068893 
	C337.962341,248.570145 338.081604,244.067245 337.925140,239.573959 
	C337.803558,236.082367 337.338104,232.602768 336.500092,228.520203 
M368.059998,258.036407 
	C368.611847,260.225952 369.163666,262.415466 369.695679,264.526337 
	C377.335510,265.555908 377.983276,265.015869 377.989746,257.662781 
	C377.992523,254.516724 378.342499,251.296692 377.800751,248.240341 
	C376.760834,242.373291 381.447723,237.213165 386.197784,236.650574 
	C391.354767,236.039749 390.395752,232.700851 389.643768,229.956970 
	C388.706451,226.536926 385.990204,226.426712 382.820984,227.509369 
	C380.235626,228.392563 377.402222,228.557587 374.674072,229.012451 
	C372.476654,229.378830 370.272064,229.702423 368.005127,230.837845 
	C367.838470,233.525009 367.646515,236.210892 367.510620,238.899612 
	C367.265381,243.751404 366.965149,248.603485 366.888214,253.458618 
	C366.868256,254.720200 367.589508,255.993515 368.059998,258.036407 
M137.047913,234.927795 
	C139.503235,240.253296 142.531601,245.400009 144.263474,250.951202 
	C146.262436,257.358612 150.408676,257.652100 155.241882,256.697693 
	C158.223175,250.450821 161.100891,244.420975 163.978592,238.391129 
	C164.610764,238.549057 165.242935,238.706985 165.875107,238.864914 
	C165.875107,247.372543 165.875107,255.880157 165.875107,264.456787 
	C169.224457,264.192902 171.694168,263.998352 174.725800,263.230133 
	C174.770554,247.893021 174.815292,232.555908 175.160461,216.587921 
	C176.325043,212.661346 172.923309,213.650208 171.393021,213.550003 
	C168.990036,213.392639 166.532761,214.064301 164.065964,214.389175 
	C160.405579,222.661285 156.797195,230.910065 153.062119,239.101074 
	C152.715179,239.861923 151.447281,240.817841 150.814804,240.686066 
	C149.916916,240.498932 148.886902,239.534866 148.478531,238.643799 
	C146.207016,233.687195 143.626541,228.797241 142.059540,223.610260 
	C139.702866,215.809265 135.407867,211.952957 126.193436,214.325485 
	C126.135803,230.214493 126.078171,246.103485 125.927185,262.712921 
	C128.592407,266.217865 132.020142,263.605682 135.761765,263.910583 
	C136.167847,262.617310 136.738571,261.348999 136.939209,260.024628 
	C137.202728,258.285217 137.268188,256.501038 137.255615,254.737289 
	C137.206787,247.884216 137.093338,241.031616 137.047913,234.927795 
M251.556229,264.918915 
	C255.333633,264.600647 259.118561,263.964355 262.886292,264.053833 
	C266.629700,264.142700 268.202026,263.253204 268.101959,259.080292 
	C267.822845,247.444717 268.008972,235.797958 268.011139,224.155624 
	C268.011719,220.884460 268.011200,217.613297 268.011200,214.024323 
	C264.466064,214.024323 261.448608,214.024323 258.430359,214.024323 
	C258.430359,219.458740 258.430359,224.239365 258.430359,228.020142 
	C253.704102,228.020142 249.269867,227.547760 245.002441,228.187759 
	C242.201462,228.607819 239.337784,230.240662 237.031570,232.017502 
	C230.599655,236.973038 232.250153,244.311356 232.227295,251.003479 
	C232.219894,253.171173 233.080200,255.456375 233.984253,257.492126 
	C237.297134,264.951996 243.907669,265.322113 251.556229,264.918915 
M399.655121,240.322372 
	C402.287811,238.960251 404.810272,237.112411 407.608002,236.477264 
	C408.712891,236.226440 410.430939,238.676727 411.869812,239.897095 
	C410.673553,240.935806 409.626892,242.349030 408.237427,242.904022 
	C406.942596,243.421204 405.226685,243.290237 403.794037,242.985001 
	C398.012177,241.753052 393.412781,244.923752 391.484314,249.085236 
	C389.911438,252.479431 391.616852,257.488495 392.250488,261.724426 
	C392.369415,262.519684 394.272308,263.573669 395.381958,263.610718 
	C403.191193,263.871368 411.009277,263.849762 418.822266,264.022461 
	C421.696228,264.085968 422.018158,262.411072 421.996918,260.160126 
	C421.940857,254.216324 421.276001,248.158051 422.224579,242.370056 
	C422.794922,238.890213 421.798462,236.540421 420.405396,233.965118 
	C418.295990,230.065613 415.185974,227.688660 410.449127,227.957062 
	C407.792480,228.107574 405.111511,227.854568 402.458130,228.032089 
	C394.921112,228.536316 391.336334,232.820435 392.658600,239.545792 
	C394.772125,239.767532 396.880707,239.988739 399.655121,240.322372 
M195.983154,238.440994 
	C195.656357,245.669754 195.336533,252.898849 194.999710,260.127136 
	C194.844086,263.466827 196.196823,265.126587 199.740082,264.710510 
	C201.302094,264.527069 202.903564,264.679626 204.986832,264.679626 
	C204.986832,261.276306 204.896545,258.307739 205.007675,255.346725 
	C205.181183,250.723511 204.803665,245.910782 206.033264,241.567215 
	C206.648422,239.394180 210.124115,237.053833 212.623032,236.621506 
	C216.316650,235.982468 219.087524,238.037689 219.071472,242.589859 
	C219.049988,248.685211 219.154587,254.796906 219.643311,260.866302 
	C219.757431,262.283661 221.382828,264.174438 222.765961,264.740631 
	C224.415314,265.415802 226.552307,264.899750 229.437836,264.899750 
	C228.961899,254.980087 229.019669,245.685181 227.796600,236.561951 
	C227.385483,233.495331 224.260544,229.629349 221.391098,228.366287 
	C218.203842,226.963364 213.724503,227.458054 210.123474,228.371429 
	C207.393082,229.063995 205.452591,229.024521 202.890152,227.969620 
	C198.222626,226.048080 195.535248,228.252899 195.945038,233.036621 
	C196.072403,234.523636 195.974976,236.029892 195.983154,238.440994 
M359.461853,256.881104 
	C358.310638,255.621292 356.398865,254.487854 356.164215,253.075745 
	C355.653442,250.001892 355.992126,246.785995 355.993408,243.628143 
	C355.996277,236.510162 355.999359,236.516159 362.835419,235.763931 
	C363.109192,235.733795 363.347778,235.384003 363.598694,235.177979 
	C364.293793,229.106918 364.020874,228.032669 360.475708,228.092499 
	C356.439453,228.160583 355.608124,226.355209 355.983093,222.960449 
	C356.377289,219.391556 354.884552,217.627960 351.133484,217.976669 
	C349.895233,218.091782 348.624786,217.860641 347.283997,217.782898 
	C346.228027,222.281052 349.617920,228.778015 340.836761,229.433670 
	C341.876007,231.893097 342.292694,235.163147 343.624908,235.592514 
	C347.245819,236.759537 347.017456,239.157318 347.007965,241.839645 
	C346.994446,245.662308 347.323456,249.515869 346.952026,253.301865 
	C345.951782,263.497772 353.727753,265.712860 361.016022,265.275818 
	C364.466125,265.068939 366.649567,262.637207 366.033264,258.745667 
	C365.361633,254.504883 362.532318,256.504578 359.461853,256.881104 
M181.049088,239.095001 
	C181.038483,244.977432 181.040298,250.859909 181.014313,256.742279 
	C180.975861,265.447784 180.967407,265.447479 189.376297,263.957062 
	C189.538818,263.928284 189.787109,263.992981 189.859070,263.903900 
	C190.582153,263.008881 191.899719,262.079254 191.883163,261.180908 
	C191.711487,251.874374 191.187775,242.573654 191.062927,233.267288 
	C191.013580,229.588135 190.054779,227.840652 185.987854,227.851395 
	C181.979263,227.861984 180.588913,229.438721 180.967972,233.219727 
	C181.132584,234.861481 181.008591,236.532166 181.049088,239.095001 
M338.397766,219.476089 
	C337.955048,217.307205 338.110748,214.771652 334.905731,214.469574 
	C331.573303,214.155518 328.172974,213.463181 326.118103,216.885925 
	C327.141388,219.071686 327.905273,221.052094 328.952179,222.869461 
	C331.379303,227.082703 336.839478,225.509750 338.397766,219.476089 
M183.598297,223.977631 
	C185.469009,223.827484 188.000504,224.365692 189.049088,223.359100 
	C190.472809,221.992325 191.796051,219.091415 191.253647,217.498383 
	C190.683777,215.824722 187.996750,214.372604 185.974899,213.870377 
	C184.654709,213.542450 181.548843,215.054062 181.534866,215.785553 
	C181.486160,218.329269 182.437515,220.892120 183.598297,223.977631 
M480.553436,224.977829 
	C485.464569,224.451019 487.800415,221.412460 486.289368,217.707443 
	C484.785004,214.018677 481.559204,213.504517 478.538727,214.206436 
	C477.081757,214.545013 475.506134,216.997650 475.116272,218.745499 
	C474.355225,222.157974 476.276581,224.311066 480.553436,224.977829 
z"/>
<path fill="#1A2946" opacity="1.000000" stroke="none" 
	d="
M297.981720,111.951256 
	C299.053223,112.272400 300.124725,112.593536 301.680847,113.240463 
	C304.153931,115.395912 306.142334,117.225571 308.076477,119.398941 
	C308.654144,120.107666 309.286133,120.472672 310.214600,120.679764 
	C313.007599,119.007721 315.504089,117.493607 318.000580,115.979492 
	C322.326385,115.741516 326.873535,114.751595 329.923828,120.087517 
	C331.359955,122.124214 332.621979,123.511505 333.883972,124.898788 
	C333.860718,125.062706 333.869843,125.239738 333.809540,125.388657 
	C331.737946,130.502579 330.251160,135.182968 337.277039,138.126785 
	C342.045074,140.124573 342.096588,144.859390 341.568237,149.604858 
	C341.103943,149.784714 340.984802,149.631287 340.839203,149.599670 
	C340.699799,149.569382 340.427582,149.624985 340.393829,149.712387 
	C339.821289,151.195679 339.701080,153.487030 338.653320,154.044647 
	C333.931030,156.557831 332.821259,160.222763 334.060303,165.066147 
	C334.964905,168.602219 333.743500,170.088196 329.913208,168.756516 
	C327.237061,165.146362 323.929626,163.188522 320.973785,162.359406 
	C321.673584,169.128540 322.343750,175.610901 323.031372,182.436127 
	C323.043945,183.464584 323.039124,184.150192 323.034302,184.835800 
	C323.363312,190.344238 320.793060,194.593689 316.823883,197.960556 
	C312.044708,202.014526 306.946442,201.847321 301.552368,197.757141 
	C298.692200,194.678268 296.200836,192.028534 292.958252,188.579849 
	C291.241699,190.709290 289.530457,192.832169 287.580750,194.962982 
	C287.342316,194.970917 286.867645,195.019806 286.867645,195.019806 
	C285.473083,195.211990 284.027649,195.232452 282.693268,195.627747 
	C278.246338,196.944992 274.907471,194.854797 273.462769,191.241425 
	C272.233093,188.165833 272.750488,184.391708 272.494934,180.926636 
	C273.925049,180.982346 275.536072,180.661499 276.719727,181.230194 
	C277.470276,181.590805 277.656250,183.255173 277.972565,184.369675 
	C279.751587,190.637665 282.336945,191.922699 287.203491,188.026321 
	C290.074097,185.727951 292.034363,182.236435 294.174072,179.123474 
	C294.667175,178.406052 294.218018,177.041016 294.202454,175.973999 
	C293.202271,176.058136 292.142944,175.957367 291.211212,176.255417 
	C283.143768,178.836243 274.991974,179.369934 267.144318,175.964951 
	C260.733521,173.183395 259.135284,168.575546 261.312073,162.013687 
	C261.569550,161.237595 261.739532,160.432465 262.304779,159.111954 
	C263.405579,157.380157 264.151672,156.177231 265.231384,154.852417 
	C267.749847,153.422318 269.934692,152.114090 273.198181,150.160019 
	C270.350250,148.101639 268.248901,146.582886 266.281067,144.798279 
	C266.245758,143.301178 266.076965,142.069916 265.908203,140.838669 
	C262.673248,134.125916 266.906281,126.758835 274.437317,125.973190 
	C276.374908,125.771065 278.306549,125.511818 280.888031,125.274292 
	C282.634613,125.820396 283.734039,126.371040 285.200317,126.984337 
	C291.028870,130.300278 297.828827,131.800629 300.718658,138.878601 
	C298.614868,139.195312 296.618378,139.168121 294.925171,138.437744 
	C291.172028,136.818771 287.571136,134.846863 283.649597,132.947662 
	C282.944519,132.591583 282.497925,132.306686 281.678101,131.883652 
	C279.185364,131.569534 276.955353,130.894180 274.971954,131.333115 
	C271.894714,132.014069 269.433563,133.787308 270.081482,137.654236 
	C270.849945,142.240570 275.251282,146.458145 280.377594,147.527069 
	C284.420410,149.748138 287.504333,152.085709 285.541290,157.154663 
	C285.352234,157.642792 285.833405,158.390488 285.952454,159.369858 
	C283.758240,163.862686 281.615051,168.003357 278.878204,173.290955 
	C284.300354,172.048401 288.860748,171.003311 293.771912,170.062820 
	C296.443848,172.195023 298.765045,174.222641 301.044189,176.623138 
	C301.700226,181.918732 301.504730,187.208618 303.336212,191.665558 
	C305.352173,196.571335 313.075348,196.358917 315.380005,191.609421 
	C316.617859,189.058365 316.432739,185.816818 317.049988,182.635345 
	C316.761627,180.814651 316.313019,179.245453 315.866638,177.362610 
	C317.871857,173.428696 316.317169,166.658066 312.596771,163.287750 
	C309.804352,165.513641 306.989349,167.757538 303.911316,169.788513 
	C301.271179,165.967773 298.894043,162.359924 296.705566,158.705795 
	C297.145386,158.492767 297.396484,158.326019 297.647614,158.159256 
	C297.359772,157.871521 297.071930,157.583786 296.429230,157.161072 
	C292.229156,154.992706 286.303009,154.254776 290.141418,147.436600 
	C290.344360,147.076141 290.130188,146.480850 290.439026,145.910431 
	C294.296814,143.858871 297.825745,141.891800 302.510803,139.280258 
	C302.629272,137.001907 302.956268,132.929337 303.025421,128.852386 
	C303.124481,123.013161 299.523682,118.026855 294.027130,115.582375 
	C295.438477,114.177444 296.710114,113.064354 297.981720,111.951256 
M281.337952,154.688950 
	C275.898407,153.818512 271.707184,156.327560 268.382843,160.123627 
	C265.801117,163.071732 266.679108,168.229156 269.476074,171.014816 
	C271.924408,173.453186 274.347626,172.440552 274.681793,169.883011 
	C275.456207,163.955673 279.974274,160.143280 281.977051,154.916901 
	C281.977051,154.916901 281.994354,154.997604 281.337952,154.688950 
M326.928741,126.507988 
	C325.797974,123.764740 324.934723,120.547112 320.975861,121.152405 
	C316.178650,121.885887 308.839294,130.657852 308.336884,136.185730 
	C311.500488,135.448059 314.665222,133.907303 317.661774,134.184479 
	C323.284576,134.704575 326.561371,133.197647 326.928741,126.507988 
M332.959259,141.524933 
	C328.611206,138.690857 328.173004,142.385315 327.035095,145.028275 
	C326.294739,146.747833 325.263855,148.352173 324.629639,150.104599 
	C324.085938,151.606979 323.920868,153.246353 323.588318,154.825134 
	C324.951447,154.871017 326.393005,155.215164 327.656677,154.882874 
	C329.051453,154.516129 330.255615,153.472580 331.590546,152.821823 
	C337.422302,149.978943 337.966461,146.964996 332.959259,141.524933 
M317.662018,148.053131 
	C321.064453,145.884979 323.233124,143.112381 322.414612,138.136826 
	C317.749573,139.336578 313.437469,140.445572 308.964172,141.596008 
	C313.512604,152.034821 313.201324,150.850174 317.662018,148.053131 
z"/>
<path fill="#0F2243" opacity="1.000000" stroke="none" 
	d="
M127.031494,214.030014 
	C135.407867,211.952957 139.702866,215.809265 142.059540,223.610260 
	C143.626541,228.797241 146.207016,233.687195 148.478531,238.643799 
	C148.886902,239.534866 149.916916,240.498932 150.814804,240.686066 
	C151.447281,240.817841 152.715179,239.861923 153.062119,239.101074 
	C156.797195,230.910065 160.405579,222.661285 164.065964,214.389175 
	C166.532761,214.064301 168.990036,213.392639 171.393021,213.550003 
	C172.923309,213.650208 176.325043,212.661346 174.769562,217.214478 
	C174.307068,233.161942 174.235458,248.482849 174.163864,263.803772 
	C171.694168,263.998352 169.224457,264.192902 165.875107,264.456787 
	C165.875107,255.880157 165.875107,247.372543 165.875107,238.864914 
	C165.242935,238.706985 164.610764,238.549057 163.978592,238.391129 
	C161.100891,244.420975 158.223175,250.450821 155.241882,256.697693 
	C150.408676,257.652100 146.262436,257.358612 144.263474,250.951202 
	C142.531601,245.400009 139.503235,240.253296 137.015793,234.183456 
	C134.072723,231.960236 135.124146,234.594284 135.116669,235.466629 
	C135.035522,244.928879 135.080551,254.392197 135.091156,263.855225 
	C132.020142,263.605682 128.592407,266.217865 126.383163,262.191223 
	C126.903252,245.789703 126.967369,229.909866 127.031494,214.030014 
z"/>
<path fill="#23ACB5" opacity="1.000000" stroke="none" 
	d="
M294.864502,239.057236 
	C295.628998,240.303345 296.393463,241.549438 297.483063,243.325424 
	C301.105896,236.111237 303.971039,230.405914 307.199707,224.153732 
	C307.701691,223.027100 307.840179,222.447327 307.978638,221.867554 
	C307.978638,221.867554 308.068878,221.440353 308.313324,221.086609 
	C308.771484,220.504944 308.902771,220.236694 308.951630,219.928101 
	C308.951630,219.928101 308.950073,220.002609 309.284302,219.920563 
	C310.068970,219.390671 310.740021,219.022202 310.934235,218.482224 
	C312.263855,214.785614 315.493011,214.199722 318.219727,215.371231 
	C319.707397,216.010406 320.807831,219.176651 320.866791,221.238007 
	C321.142090,230.860138 321.103516,240.496124 320.950958,250.123566 
	C320.873291,255.025436 320.318298,259.919739 319.979095,264.817444 
	C312.653290,265.218750 311.696533,263.985535 312.084930,256.777283 
	C312.440582,250.176758 312.160431,243.541992 312.160431,236.270172 
	C308.760010,243.193924 305.924316,249.505157 302.522278,255.494690 
	C301.730255,256.889099 298.795013,258.129578 297.231323,257.769073 
	C294.973663,257.248535 292.799194,255.462189 291.105591,253.715302 
	C289.957825,252.531433 289.696716,250.487946 289.154480,248.131226 
	C288.111328,243.180618 286.952759,238.927673 285.794159,234.674744 
	C285.009064,234.630249 284.223938,234.585739 283.438843,234.541245 
	C282.620819,236.504379 281.206024,238.435242 281.097748,240.436768 
	C280.784424,246.226761 281.024139,252.045380 280.989227,257.852386 
	C280.974823,260.248169 281.676117,263.152863 277.605164,262.991180 
	C273.944977,262.845795 273.993286,260.314880 273.994659,257.721466 
	C274.001190,245.277313 273.966187,232.833054 274.010010,220.389053 
	C274.027893,215.309677 276.071503,213.906097 280.907471,215.536942 
	C282.001221,215.905807 283.021606,216.492172 284.075775,216.978424 
	C284.075775,216.978424 284.011902,217.001526 283.917145,217.254486 
	C284.567993,218.658997 285.313599,219.810577 286.059204,220.962143 
	C286.059204,220.962143 286.007965,221.000900 286.092224,221.189026 
	C286.325989,221.653641 286.532043,221.878311 286.794586,222.051147 
	C286.794586,222.051147 286.933960,222.461472 287.056549,222.912659 
	C287.405609,223.608780 287.632050,223.853699 287.858521,224.098633 
	C288.251648,224.817108 288.644745,225.535568 288.832184,226.815887 
	C290.111481,230.237259 291.596466,233.096817 293.081451,235.956375 
	C293.081451,235.956375 293.015320,235.995010 293.048584,236.267242 
	C293.421021,237.019516 293.760193,237.499557 294.099396,237.979599 
	C294.099396,237.979599 294.027222,237.981537 294.117432,238.170715 
	C294.374023,238.641861 294.592987,238.874298 294.864502,239.057236 
z"/>
<path fill="#0F2243" opacity="1.000000" stroke="none" 
	d="
M251.165192,264.954285 
	C243.907669,265.322113 237.297134,264.951996 233.984253,257.492126 
	C233.080200,255.456375 232.219894,253.171173 232.227295,251.003479 
	C232.250153,244.311356 230.599655,236.973038 237.031570,232.017502 
	C239.337784,230.240662 242.201462,228.607819 245.002441,228.187759 
	C249.269867,227.547760 253.704102,228.020142 258.430359,228.020142 
	C258.430359,224.239365 258.430359,219.458740 258.430359,214.024323 
	C261.448608,214.024323 264.466064,214.024323 268.011200,214.024323 
	C268.011200,217.613297 268.011719,220.884460 268.011139,224.155624 
	C268.008972,235.797958 267.822845,247.444717 268.101959,259.080292 
	C268.202026,263.253204 266.629700,264.142700 262.886292,264.053833 
	C259.118561,263.964355 255.333633,264.600647 251.165192,264.954285 
M249.733414,236.038971 
	C243.362366,237.607605 242.914169,242.252686 242.665970,247.857346 
	C242.369492,254.552094 245.716187,258.081909 252.285370,256.411530 
	C255.288834,255.647827 258.985229,250.266373 258.998962,246.637375 
	C259.017303,241.794418 255.372131,237.241867 249.733414,236.038971 
z"/>
<path fill="#112345" opacity="1.000000" stroke="none" 
	d="
M399.322205,240.266174 
	C396.880707,239.988739 394.772125,239.767532 392.658600,239.545792 
	C391.336334,232.820435 394.921112,228.536316 402.458130,228.032089 
	C405.111511,227.854568 407.792480,228.107574 410.449127,227.957062 
	C415.185974,227.688660 418.295990,230.065613 420.405396,233.965118 
	C421.798462,236.540421 422.794922,238.890213 422.224579,242.370056 
	C421.276001,248.158051 421.940857,254.216324 421.996918,260.160126 
	C422.018158,262.411072 421.696228,264.085968 418.822266,264.022461 
	C411.009277,263.849762 403.191193,263.871368 395.381958,263.610718 
	C394.272308,263.573669 392.369415,262.519684 392.250488,261.724426 
	C391.616852,257.488495 389.911438,252.479431 391.484314,249.085236 
	C393.412781,244.923752 398.012177,241.753052 403.794037,242.985001 
	C405.226685,243.290237 406.942596,243.421204 408.237427,242.904022 
	C409.626892,242.349030 410.673553,240.935806 411.869812,239.897095 
	C410.430939,238.676727 408.712891,236.226440 407.608002,236.477264 
	C404.810272,237.112411 402.287811,238.960251 399.322205,240.266174 
M404.885162,257.054993 
	C410.488403,258.363434 411.407654,254.300293 413.052002,249.602921 
	C410.374207,249.397049 407.852448,248.477921 406.050812,249.246628 
	C403.751831,250.227478 402.034576,252.571732 400.066589,254.328354 
	C401.421173,255.207596 402.775757,256.086853 404.885162,257.054993 
z"/>
<path fill="#0E2042" opacity="1.000000" stroke="none" 
	d="
M195.981812,237.984161 
	C195.974976,236.029892 196.072403,234.523636 195.945038,233.036621 
	C195.535248,228.252899 198.222626,226.048080 202.890152,227.969620 
	C205.452591,229.024521 207.393082,229.063995 210.123474,228.371429 
	C213.724503,227.458054 218.203842,226.963364 221.391098,228.366287 
	C224.260544,229.629349 227.385483,233.495331 227.796600,236.561951 
	C229.019669,245.685181 228.961899,254.980087 229.437836,264.899750 
	C226.552307,264.899750 224.415314,265.415802 222.765961,264.740631 
	C221.382828,264.174438 219.757431,262.283661 219.643311,260.866302 
	C219.154587,254.796906 219.049988,248.685211 219.071472,242.589859 
	C219.087524,238.037689 216.316650,235.982468 212.623032,236.621506 
	C210.124115,237.053833 206.648422,239.394180 206.033264,241.567215 
	C204.803665,245.910782 205.181183,250.723511 205.007675,255.346725 
	C204.896545,258.307739 204.986832,261.276306 204.986832,264.679626 
	C202.903564,264.679626 201.302094,264.527069 199.740082,264.710510 
	C196.196823,265.126587 194.844086,263.466827 194.999710,260.127136 
	C195.336533,252.898849 195.656357,245.669754 195.981812,237.984161 
z"/>
<path fill="#23ACB5" opacity="1.000000" stroke="none" 
	d="
M453.994324,228.156464 
	C457.962158,228.760437 462.180145,228.721603 465.830292,230.141983 
	C469.798096,231.685959 472.106934,235.180298 472.008850,239.911621 
	C471.870239,246.595810 471.808044,253.291977 472.059998,259.969940 
	C472.209473,263.931549 470.758972,265.551788 466.382904,264.606262 
	C464.039368,259.480133 461.010132,261.332367 457.407166,262.000549 
	C453.660919,262.695343 448.605499,262.681030 445.893402,260.632416 
	C443.643433,258.932892 442.761200,253.572220 443.455200,250.295685 
	C444.316040,246.231277 447.951965,243.653381 452.863495,243.853729 
	C455.466156,243.959900 458.136139,243.444763 460.704559,242.883972 
	C461.815948,242.641312 463.127533,241.764877 463.607056,240.805756 
	C463.862793,240.294327 462.539337,238.993332 461.928589,238.048706 
	C461.928589,238.048721 461.991089,238.001343 461.926086,237.712860 
	C461.207031,236.979630 460.552948,236.534851 459.898865,236.090088 
	C459.898865,236.090073 459.984711,236.000320 459.870056,235.673584 
	C455.846619,232.663773 452.576019,233.958847 449.160126,236.594986 
	C448.057495,237.445938 445.948517,236.992874 444.299896,237.136353 
	C444.818817,235.643433 444.897430,233.575363 445.945160,232.773331 
	C448.379700,230.909698 451.281769,229.656845 453.994324,228.156464 
M461.895050,253.856079 
	C462.508820,252.204376 464.059143,249.543884 463.565216,249.085327 
	C461.917053,247.555206 459.536438,246.814102 456.592194,245.351166 
	C457.387085,247.352310 457.682098,248.095016 457.225037,248.963684 
	C456.209442,249.000519 455.193817,249.037369 453.501923,248.780258 
	C450.201508,247.087631 448.953033,249.328445 448.339966,251.815918 
	C447.782440,254.078033 447.014984,256.948853 451.546936,257.050140 
	C451.546936,257.050140 451.997864,257.188538 452.288696,257.539917 
	C452.513184,257.757355 452.777863,257.900513 453.560791,258.049866 
	C453.560791,258.049866 454.025696,258.187439 454.529358,258.590149 
	C455.682983,258.121918 456.836609,257.653656 458.677856,257.030548 
	C459.514465,256.022980 460.351074,255.015411 461.895050,253.856079 
z"/>
<path fill="#0E2042" opacity="1.000000" stroke="none" 
	d="
M359.877808,256.861877 
	C362.532318,256.504578 365.361633,254.504883 366.033264,258.745667 
	C366.649567,262.637207 364.466125,265.068939 361.016022,265.275818 
	C353.727753,265.712860 345.951782,263.497772 346.952026,253.301865 
	C347.323456,249.515869 346.994446,245.662308 347.007965,241.839645 
	C347.017456,239.157318 347.245819,236.759537 343.624908,235.592514 
	C342.292694,235.163147 341.876007,231.893097 340.836761,229.433670 
	C349.617920,228.778015 346.228027,222.281052 347.283997,217.782898 
	C348.624786,217.860641 349.895233,218.091782 351.133484,217.976669 
	C354.884552,217.627960 356.377289,219.391556 355.983093,222.960449 
	C355.608124,226.355209 356.439453,228.160583 360.475708,228.092499 
	C364.020874,228.032669 364.293793,229.106918 363.600739,235.180573 
	C363.347778,235.384003 363.109192,235.733795 362.835419,235.763931 
	C355.999359,236.516159 355.996277,236.510162 355.993408,243.628143 
	C355.992126,246.785995 355.653442,250.001892 356.164215,253.075745 
	C356.398865,254.487854 358.310638,255.621292 359.877808,256.861877 
z"/>
<path fill="#0F2243" opacity="1.000000" stroke="none" 
	d="
M368.070679,230.045013 
	C370.272064,229.702423 372.476654,229.378830 374.674072,229.012451 
	C377.402222,228.557587 380.235626,228.392563 382.820984,227.509369 
	C385.990204,226.426712 388.706451,226.536926 389.643768,229.956970 
	C390.395752,232.700851 391.354767,236.039749 386.197784,236.650574 
	C381.447723,237.213165 376.760834,242.373291 377.800751,248.240341 
	C378.342499,251.296692 377.992523,254.516724 377.989746,257.662781 
	C377.983276,265.015869 377.335510,265.555908 369.695679,264.526337 
	C369.163666,262.415466 368.611847,260.225952 368.296570,257.315491 
	C368.682831,252.126038 369.008392,247.654465 368.932220,243.189758 
	C368.857422,238.804550 368.374512,234.426300 368.070679,230.045013 
z"/>
<path fill="#0F2243" opacity="1.000000" stroke="none" 
	d="
M181.032379,238.642365 
	C181.008591,236.532166 181.132584,234.861481 180.967972,233.219727 
	C180.588913,229.438721 181.979263,227.861984 185.987854,227.851395 
	C190.054779,227.840652 191.013580,229.588135 191.062927,233.267288 
	C191.187775,242.573654 191.711487,251.874374 191.883163,261.180908 
	C191.899719,262.079254 190.582153,263.008881 189.859070,263.903900 
	C189.787109,263.992981 189.538818,263.928284 189.376297,263.957062 
	C180.967407,265.447479 180.975861,265.447784 181.014313,256.742279 
	C181.040298,250.859909 181.038483,244.977432 181.032379,238.642365 
z"/>
<path fill="#0E2042" opacity="1.000000" stroke="none" 
	d="
M337.915985,254.014160 
	C337.935883,255.504227 337.978607,256.994385 337.971680,258.484314 
	C337.943481,264.523163 335.356323,266.631500 329.566895,264.758118 
	C328.460358,264.400085 327.413239,261.860687 327.460632,260.363190 
	C327.550568,257.521088 328.925476,254.703812 328.920502,251.877716 
	C328.909332,245.536545 328.447723,239.191895 328.038849,232.857101 
	C327.751251,228.401947 329.620422,227.398422 336.765015,229.280029 
	C337.029449,232.525574 336.939789,235.015106 337.046722,237.496185 
	C337.284149,243.004425 337.620148,248.508423 337.915985,254.014160 
z"/>
<path fill="#379EA7" opacity="1.000000" stroke="none" 
	d="
M284.036224,216.570892 
	C283.021606,216.492172 282.001221,215.905807 280.907471,215.536942 
	C276.071503,213.906097 274.027893,215.309677 274.010010,220.389053 
	C273.966187,232.833054 274.001190,245.277313 273.994659,257.721466 
	C273.993286,260.314880 273.944977,262.845795 277.605164,262.991180 
	C281.676117,263.152863 280.974823,260.248169 280.989227,257.852386 
	C281.024139,252.045380 280.784424,246.226761 281.097748,240.436768 
	C281.206024,238.435242 282.620819,236.504379 283.438843,234.541245 
	C284.223938,234.585739 285.009064,234.630249 285.794159,234.674744 
	C286.952759,238.927673 288.111328,243.180618 289.125488,247.763641 
	C287.125244,244.760559 285.269409,241.427383 282.959259,237.278168 
	C282.959259,245.236710 282.732056,252.519470 283.044830,259.778931 
	C283.231049,264.100922 281.546509,265.193604 277.531586,265.080780 
	C273.815826,264.976318 271.795013,264.543274 271.903107,259.909210 
	C272.247253,245.150833 272.079803,230.380569 272.124054,215.614914 
	C272.124969,215.308228 272.296021,215.002060 272.564545,214.104660 
	C276.285553,215.018311 280.635376,211.676636 284.036224,216.570892 
z"/>
<path fill="#379EA7" opacity="1.000000" stroke="none" 
	d="
M330.055237,169.053070 
	C333.743500,170.088196 334.964905,168.602219 334.060303,165.066147 
	C332.821259,160.222763 333.931030,156.557831 338.653320,154.044647 
	C339.701080,153.487030 339.821289,151.195679 340.393829,149.712387 
	C340.427582,149.624985 340.699799,149.569382 340.839203,149.599670 
	C340.984802,149.631287 341.103943,149.784714 341.454102,150.031464 
	C341.765350,154.157364 341.857086,158.136688 341.670349,162.265442 
	C340.313995,160.854736 341.969971,156.574585 338.247406,158.073059 
	C336.799011,158.656082 336.361877,162.745041 336.304810,165.256119 
	C336.284607,166.144943 338.762573,167.090576 340.100067,168.010269 
	C337.906799,169.926422 337.874420,172.405884 337.938263,175.092957 
	C338.123199,182.880783 331.649933,187.399246 323.397766,184.994202 
	C323.039124,184.150192 323.043945,183.464584 323.373474,182.253723 
	C324.184418,181.156754 324.634705,180.124496 325.162537,180.083191 
	C331.811218,179.562943 334.254547,176.476776 330.055237,169.053070 
z"/>
<path fill="#23ACB5" opacity="1.000000" stroke="none" 
	d="
M479.983185,229.211304 
	C480.436005,229.170593 480.888855,229.129898 481.887573,229.461029 
	C482.733368,230.228958 483.287201,230.619553 483.295929,231.021973 
	C483.510590,240.914169 483.712067,250.807571 483.725891,260.701019 
	C483.726746,261.306244 481.940460,262.574463 481.370117,262.383850 
	C480.143463,261.973969 478.249146,260.832886 478.230560,259.957123 
	C478.034271,250.693832 478.099182,241.422897 478.263367,232.157120 
	C478.280945,231.165329 479.383789,230.192780 479.983185,229.211304 
z"/>
<path fill="#2CA1A9" opacity="1.000000" stroke="none" 
	d="
M461.962067,238.398376 
	C462.539337,238.993332 463.862793,240.294327 463.607056,240.805756 
	C463.127533,241.764877 461.815948,242.641312 460.704559,242.883972 
	C458.136139,243.444763 455.466156,243.959900 452.863495,243.853729 
	C447.951965,243.653381 444.316040,246.231277 443.455200,250.295685 
	C442.761200,253.572220 443.643433,258.932892 445.893402,260.632416 
	C448.605499,262.681030 453.660919,262.695343 457.407166,262.000549 
	C461.010132,261.332367 464.039368,259.480133 465.965027,264.547058 
	C463.061279,263.527802 460.301758,263.983704 457.077423,264.643463 
	C450.883575,265.910797 444.476807,265.287262 440.095184,259.800476 
	C439.172821,258.645416 439.742371,256.086945 440.008881,254.230316 
	C441.316284,245.122711 448.277039,239.920197 457.476562,241.145874 
	C459.669739,241.438080 462.148804,242.696777 461.962067,238.398376 
z"/>
<path fill="#379EA7" opacity="1.000000" stroke="none" 
	d="
M334.038208,124.607079 
	C332.621979,123.511505 331.359955,122.124214 330.085480,120.396339 
	C331.285522,118.484695 332.488251,116.905914 333.714294,115.345451 
	C334.467926,114.386208 335.182587,112.729340 336.043762,112.640800 
	C339.219452,112.314308 342.449005,112.511078 345.294098,112.511078 
	C347.714050,118.485016 343.472168,120.771309 340.753448,123.296700 
	C339.320404,124.627831 336.050781,121.149925 334.038208,124.607079 
z"/>
<path fill="#2CA1A9" opacity="1.000000" stroke="none" 
	d="
M284.833496,126.921677 
	C283.734039,126.371040 282.634613,125.820396 281.262146,125.126312 
	C279.091278,119.388573 282.626617,115.905411 286.018738,112.505013 
	C289.472748,109.042610 293.514740,109.227417 297.820435,111.603661 
	C296.710114,113.064354 295.438477,114.177444 293.713074,115.454300 
	C292.572632,115.616066 291.446991,115.350708 291.266205,115.652130 
	C289.041779,119.360550 286.955475,123.151817 284.833496,126.921677 
z"/>
<path fill="#379EA7" opacity="1.000000" stroke="none" 
	d="
M320.374084,264.860596 
	C320.318298,259.919739 320.873291,255.025436 320.950958,250.123566 
	C321.103516,240.496124 321.142090,230.860138 320.866791,221.238007 
	C320.807831,219.176651 319.707397,216.010406 318.219727,215.371231 
	C315.493011,214.199722 312.263855,214.785614 310.934235,218.482224 
	C310.740021,219.022202 310.068970,219.390671 309.265289,219.888474 
	C309.874603,218.007690 310.563477,214.672699 311.853271,214.421371 
	C315.130707,213.782700 318.690674,214.418167 322.098358,214.851334 
	C322.512848,214.904037 322.932617,216.840866 322.936584,217.906021 
	C322.989899,232.296738 323.025482,246.688324 322.872498,261.077637 
	C322.858856,262.360291 321.502075,263.628693 320.374084,264.860596 
z"/>
<path fill="#112345" opacity="1.000000" stroke="none" 
	d="
M338.335266,219.847778 
	C336.839478,225.509750 331.379303,227.082703 328.952179,222.869461 
	C327.905273,221.052094 327.141388,219.071686 326.118103,216.885925 
	C328.172974,213.463181 331.573303,214.155518 334.905731,214.469574 
	C338.110748,214.771652 337.955048,217.307205 338.335266,219.847778 
z"/>
<path fill="#2CA1A9" opacity="1.000000" stroke="none" 
	d="
M479.611328,229.131714 
	C479.383789,230.192780 478.280945,231.165329 478.263367,232.157120 
	C478.099182,241.422897 478.034271,250.693832 478.230560,259.957123 
	C478.249146,260.832886 480.143463,261.973969 481.370117,262.383850 
	C481.940460,262.574463 483.726746,261.306244 483.725891,260.701019 
	C483.712067,250.807571 483.510590,240.914169 483.295929,231.021973 
	C483.287201,230.619553 482.733368,230.228958 482.224426,229.522003 
	C482.757538,229.165085 483.499695,229.119003 484.645081,229.600464 
	C485.022827,241.403885 484.997314,252.679749 484.971802,263.955627 
	C479.123932,266.319122 477.338989,265.591888 475.383881,259.444702 
	C476.180939,257.697906 476.982605,256.412933 476.996246,255.119644 
	C477.087158,246.507538 477.009552,237.893631 476.986725,229.280304 
	C477.737640,229.204239 478.488586,229.128174 479.611328,229.131714 
z"/>
<path fill="#0E2042" opacity="1.000000" stroke="none" 
	d="
M183.303436,223.712662 
	C182.437515,220.892120 181.486160,218.329269 181.534866,215.785553 
	C181.548843,215.054062 184.654709,213.542450 185.974899,213.870377 
	C187.996750,214.372604 190.683777,215.824722 191.253647,217.498383 
	C191.796051,219.091415 190.472809,221.992325 189.049088,223.359100 
	C188.000504,224.365692 185.469009,223.827484 183.303436,223.712662 
z"/>
<path fill="#379EA7" opacity="1.000000" stroke="none" 
	d="
M308.130768,119.055237 
	C306.142334,117.225571 304.153931,115.395912 302.017578,113.261520 
	C305.818604,109.660225 312.305511,110.580490 317.966187,115.607468 
	C315.504089,117.493607 313.007599,119.007721 310.193054,120.372429 
	C309.293579,119.833755 308.712158,119.444496 308.130768,119.055237 
z"/>
<path fill="#379EA7" opacity="1.000000" stroke="none" 
	d="
M264.897766,154.974304 
	C264.151672,156.177231 263.405579,157.380157 262.378510,158.718781 
	C258.953186,154.087341 259.249054,148.982864 261.159546,144.003159 
	C261.661194,142.695572 263.801483,142.016617 265.548706,140.943817 
	C266.076965,142.069916 266.245758,143.301178 266.196594,145.220459 
	C265.618378,148.930435 265.258087,151.952377 264.897766,154.974304 
z"/>
<path fill="#379EA7" opacity="1.000000" stroke="none" 
	d="
M287.819214,194.955032 
	C289.530457,192.832169 291.241699,190.709290 292.958252,188.579849 
	C296.200836,192.028534 298.692200,194.678268 301.203857,197.717987 
	C300.621002,199.042038 299.910339,200.834167 299.431915,200.774170 
	C295.669495,200.302399 291.951477,199.476395 288.486145,198.392700 
	C291.587463,198.302521 294.422424,198.579147 297.257385,198.855774 
	C297.322021,198.343811 297.386658,197.831833 297.451294,197.319855 
	C294.283020,196.388794 292.146729,191.982986 287.819214,194.955032 
z"/>
<path fill="#2CA1A9" opacity="1.000000" stroke="none" 
	d="
M453.590790,228.085938 
	C451.281769,229.656845 448.379700,230.909698 445.945160,232.773331 
	C444.897430,233.575363 444.818817,235.643433 444.299896,237.136353 
	C445.948517,236.992874 448.057495,237.445938 449.160126,236.594986 
	C452.576019,233.958847 455.846619,232.663773 459.836304,235.725555 
	C456.528503,235.991364 453.549347,235.658112 450.726044,239.064636 
	C449.493713,240.551529 444.721771,239.104813 441.557281,238.990341 
	C442.442169,236.421616 442.614380,233.029633 444.391327,231.491440 
	C446.640747,229.544250 450.195465,229.104996 453.590790,228.085938 
z"/>
<path fill="#379EA7" opacity="1.000000" stroke="none" 
	d="
M480.146606,224.971680 
	C476.276581,224.311066 474.355225,222.157974 475.116272,218.745499 
	C475.506134,216.997650 477.081757,214.545013 478.538727,214.206436 
	C481.559204,213.504517 484.785004,214.018677 486.289368,217.707443 
	C487.800415,221.412460 485.464569,224.451019 480.146606,224.971680 
M480.041962,216.251144 
	C479.059967,217.441132 478.077972,218.631134 477.095978,219.821121 
	C477.324677,220.428070 477.553406,221.035019 477.782104,221.641968 
	C479.725006,221.228745 482.557617,221.453125 483.412476,220.260208 
	C484.874481,218.220123 483.644501,216.249588 480.041962,216.251144 
z"/>
<path fill="#94DCE6" opacity="1.000000" stroke="none" 
	d="
M476.691071,229.226318 
	C477.009552,237.893631 477.087158,246.507538 476.996246,255.119644 
	C476.982605,256.412933 476.180939,257.697906 475.320374,259.071808 
	C474.582062,256.615692 473.905365,254.057953 474.020630,251.536423 
	C474.356659,244.186142 475.004852,236.850021 475.572266,229.511551 
	C475.582581,229.378052 476.109528,229.284500 476.691071,229.226318 
z"/>
<path fill="#23ACB5" opacity="1.000000" stroke="none" 
	d="
M431.955139,254.196548 
	C433.616638,255.912186 435.278107,257.627808 436.545166,259.778564 
	C434.210541,261.746582 432.468475,264.740692 429.629974,261.810455 
	C426.890594,258.982574 429.090088,257.179169 431.359833,255.507294 
	C431.697113,255.258881 431.763458,254.642609 431.955139,254.196548 
z"/>
<path fill="#2CA1A9" opacity="1.000000" stroke="none" 
	d="
M340.395691,167.822052 
	C338.762573,167.090576 336.284607,166.144943 336.304810,165.256119 
	C336.361877,162.745041 336.799011,158.656082 338.247406,158.073059 
	C341.969971,156.574585 340.313995,160.854736 341.608215,162.697418 
	C341.446808,164.531250 341.069061,166.082535 340.395691,167.822052 
z"/>
<path fill="#FFFFFF" opacity="1.000000" stroke="none" 
	d="
M126.612465,214.177750 
	C126.967369,229.909866 126.903252,245.789703 126.429832,261.831024 
	C126.078171,246.103485 126.135803,230.214493 126.612465,214.177750 
z"/>
<path fill="#379EA7" opacity="1.000000" stroke="none" 
	d="
M431.592987,254.129196 
	C431.763458,254.642609 431.697113,255.258881 431.359833,255.507294 
	C429.090088,257.179169 426.890594,258.982574 429.629974,261.810455 
	C432.468475,264.740692 434.210541,261.746582 436.475159,260.135010 
	C437.355377,263.162750 435.736908,265.071411 432.921112,264.784088 
	C430.706055,264.558044 427.522095,263.399658 426.811707,261.766602 
	C426.090729,260.109253 427.724884,257.297485 428.657654,255.133575 
	C428.921906,254.520523 430.341248,254.405365 431.592987,254.129196 
z"/>
<path fill="#667484" opacity="1.000000" stroke="none" 
	d="
M174.444824,263.516937 
	C174.235458,248.482849 174.307068,233.161942 174.619354,217.529922 
	C174.815292,232.555908 174.770554,247.893021 174.444824,263.516937 
z"/>
<path fill="#667484" opacity="1.000000" stroke="none" 
	d="
M135.426468,263.882904 
	C135.080551,254.392197 135.035522,244.928879 135.116669,235.466629 
	C135.124146,234.594284 134.072723,231.960236 136.993805,233.808975 
	C137.093338,241.031616 137.206787,247.884216 137.255615,254.737289 
	C137.268188,256.501038 137.202728,258.285217 136.939209,260.024628 
	C136.738571,261.348999 136.167847,262.617310 135.426468,263.882904 
z"/>
<path fill="#2CA1A9" opacity="1.000000" stroke="none" 
	d="
M287.580750,194.962982 
	C292.146729,191.982986 294.283020,196.388794 297.451294,197.319855 
	C297.386658,197.831833 297.322021,198.343811 297.257385,198.855774 
	C294.422424,198.579147 291.587463,198.302521 288.333344,198.034561 
	C287.552826,197.226364 287.191437,196.409531 286.848846,195.306244 
	C286.867645,195.019806 287.342316,194.970917 287.580750,194.962982 
z"/>
<path fill="#667484" opacity="1.000000" stroke="none" 
	d="
M368.037903,230.441422 
	C368.374512,234.426300 368.857422,238.804550 368.932220,243.189758 
	C369.008392,247.654465 368.682831,252.126038 368.251770,256.928040 
	C367.589508,255.993515 366.868256,254.720200 366.888214,253.458618 
	C366.965149,248.603485 367.265381,243.751404 367.510620,238.899612 
	C367.646515,236.210892 367.838470,233.525009 368.037903,230.441422 
z"/>
<path fill="#94DCE6" opacity="1.000000" stroke="none" 
	d="
M485.370361,263.776001 
	C484.997314,252.679749 485.022827,241.403885 485.011597,229.676315 
	C485.303040,229.834076 485.917328,230.443665 485.917053,231.052963 
	C485.912079,241.900787 485.832458,252.748596 485.370361,263.776001 
z"/>
<path fill="#94DCE6" opacity="1.000000" stroke="none" 
	d="
M337.938904,253.541534 
	C337.620148,248.508423 337.284149,243.004425 337.046722,237.496185 
	C336.939789,235.015106 337.029449,232.525574 337.027710,229.578857 
	C337.338104,232.602768 337.803558,236.082367 337.925140,239.573959 
	C338.081604,244.067245 337.962341,248.570145 337.938904,253.541534 
z"/>
<path fill="#379EA7" opacity="1.000000" stroke="none" 
	d="
M293.042664,235.590118 
	C291.596466,233.096817 290.111481,230.237259 288.851685,227.135529 
	C290.385864,229.670181 291.694855,232.447037 293.042664,235.590118 
z"/>
<path fill="#379EA7" opacity="1.000000" stroke="none" 
	d="
M286.035095,220.622040 
	C285.313599,219.810577 284.567993,218.658997 283.934998,217.225586 
	C284.702057,218.056473 285.356537,219.169205 286.035095,220.622040 
z"/>
<path fill="#2CA1A9" opacity="1.000000" stroke="none" 
	d="
M459.941467,236.429474 
	C460.552948,236.534851 461.207031,236.979630 461.906647,237.746902 
	C461.296143,237.635910 460.640106,237.202393 459.941467,236.429474 
z"/>
<path fill="#379EA7" opacity="1.000000" stroke="none" 
	d="
M294.058838,237.665878 
	C293.760193,237.499557 293.421021,237.019516 293.064911,236.232605 
	C293.371429,236.401215 293.694824,236.876694 294.058838,237.665878 
z"/>
<path fill="#379EA7" opacity="1.000000" stroke="none" 
	d="
M307.664948,221.998230 
	C307.840179,222.447327 307.701691,223.027100 307.358093,223.831131 
	C307.219055,223.413223 307.285156,222.771072 307.664948,221.998230 
z"/>
<path fill="#379EA7" opacity="1.000000" stroke="none" 
	d="
M294.894287,238.780487 
	C294.592987,238.874298 294.374023,238.641861 294.121490,238.134842 
	C294.331573,238.107788 294.627777,238.305771 294.894287,238.780487 
z"/>
<path fill="#379EA7" opacity="1.000000" stroke="none" 
	d="
M308.710358,220.021393 
	C308.902771,220.236694 308.771484,220.504944 308.384918,220.880356 
	C308.297729,220.723465 308.383392,220.419067 308.710358,220.021393 
z"/>
<path fill="#379EA7" opacity="1.000000" stroke="none" 
	d="
M287.889465,223.812836 
	C287.632050,223.853699 287.405609,223.608780 287.099609,223.125015 
	C287.320221,223.099808 287.620300,223.313416 287.889465,223.812836 
z"/>
<path fill="#379EA7" opacity="1.000000" stroke="none" 
	d="
M286.830444,221.788147 
	C286.532043,221.878311 286.325989,221.653641 286.103333,221.158905 
	C286.308929,221.135483 286.587646,221.330322 286.830444,221.788147 
z"/>
<path fill="#379EA7" opacity="1.000000" stroke="none" 
	d="
M290.110199,145.994888 
	C290.130188,146.480850 290.344360,147.076141 290.141418,147.436600 
	C286.303009,154.254776 292.229156,154.992706 296.247131,157.503662 
	C296.452209,158.238159 296.484558,158.495117 296.516907,158.752075 
	C298.894043,162.359924 301.271179,165.967773 303.864441,170.147095 
	C308.008484,173.037796 311.936462,175.357010 315.864410,177.676239 
	C316.313019,179.245453 316.761627,180.814651 316.726685,182.793762 
	C314.735718,183.127808 312.966431,183.534958 311.769714,182.886047 
	C308.090820,180.891266 304.631134,178.492188 301.086212,176.250244 
	C298.765045,174.222641 296.443848,172.195023 293.895050,169.732193 
	C291.112762,165.870560 288.558136,162.444122 286.003479,159.017700 
	C285.833405,158.390488 285.352234,157.642792 285.541290,157.154663 
	C287.504333,152.085709 284.420410,149.748138 280.721405,147.416214 
	C280.701355,145.141113 280.294830,143.187866 280.487579,141.295654 
	C280.804565,138.183548 281.509796,135.111023 282.051361,132.021805 
	C282.497925,132.306686 282.944519,132.591583 283.791199,133.300659 
	C285.112091,136.835388 285.842194,140.022614 287.047028,143.018921 
	C287.532562,144.226257 289.058014,145.015427 290.110199,145.994888 
z"/>
<path fill="#000000" opacity="1.000000" stroke="none" 
	d="
M290.439026,145.910431 
	C289.058014,145.015427 287.532562,144.226257 287.047028,143.018921 
	C285.842194,140.022614 285.112091,136.835388 284.049713,133.371857 
	C287.571136,134.846863 291.172028,136.818771 294.925171,138.437744 
	C296.618378,139.168121 298.614868,139.195312 300.718658,138.878601 
	C297.828827,131.800629 291.028870,130.300278 285.200317,126.984344 
	C286.955475,123.151817 289.041779,119.360550 291.266205,115.652130 
	C291.446991,115.350708 292.572632,115.616066 293.573303,115.746140 
	C299.523682,118.026855 303.124481,123.013161 303.025421,128.852386 
	C302.956268,132.929337 302.629272,137.001907 302.510803,139.280258 
	C297.825745,141.891800 294.296814,143.858871 290.439026,145.910431 
z"/>
<path fill="#000000" opacity="1.000000" stroke="none" 
	d="
M301.044189,176.623138 
	C304.631134,178.492188 308.090820,180.891266 311.769714,182.886047 
	C312.966431,183.534958 314.735718,183.127808 316.566406,183.045258 
	C316.432739,185.816818 316.617859,189.058365 315.380005,191.609421 
	C313.075348,196.358917 305.352173,196.571335 303.336212,191.665558 
	C301.504730,187.208618 301.700226,181.918732 301.044189,176.623138 
z"/>
<path fill="#000000" opacity="1.000000" stroke="none" 
	d="
M326.937073,126.872986 
	C326.561371,133.197647 323.284576,134.704575 317.661774,134.184479 
	C314.665222,133.907303 311.500488,135.448059 308.336884,136.185730 
	C308.839294,130.657852 316.178650,121.885887 320.975861,121.152405 
	C324.934723,120.547112 325.797974,123.764740 326.937073,126.872986 
z"/>
<path fill="#000000" opacity="1.000000" stroke="none" 
	d="
M282.000275,155.006210 
	C279.974274,160.143280 275.456207,163.955673 274.681793,169.883011 
	C274.347626,172.440552 271.924408,173.453186 269.476074,171.014816 
	C266.679108,168.229156 265.801117,163.071732 268.382843,160.123627 
	C271.707184,156.327560 275.898407,153.818512 281.669159,154.844040 
	C282.000366,154.999130 282.000275,155.006210 282.000275,155.006210 
z"/>
<path fill="#000000" opacity="1.000000" stroke="none" 
	d="
M281.678101,131.883652 
	C281.509796,135.111023 280.804565,138.183548 280.487579,141.295654 
	C280.294830,143.187866 280.701355,145.141113 280.494904,147.177811 
	C275.251282,146.458145 270.849945,142.240570 270.081482,137.654236 
	C269.433563,133.787308 271.894714,132.014069 274.971954,131.333115 
	C276.955353,130.894180 279.185364,131.569534 281.678101,131.883652 
z"/>
<path fill="#000000" opacity="1.000000" stroke="none" 
	d="
M329.913208,168.756516 
	C334.254547,176.476776 331.811218,179.562943 325.162537,180.083191 
	C324.634705,180.124496 324.184418,181.156754 323.356018,181.910873 
	C322.343750,175.610901 321.673584,169.128540 320.973785,162.359406 
	C323.929626,163.188522 327.237061,165.146362 329.913208,168.756516 
z"/>
<path fill="#000000" opacity="1.000000" stroke="none" 
	d="
M333.234497,141.755081 
	C337.966461,146.964996 337.422302,149.978943 331.590546,152.821823 
	C330.255615,153.472580 329.051453,154.516129 327.656677,154.882874 
	C326.393005,155.215164 324.951447,154.871017 323.588318,154.825134 
	C323.920868,153.246353 324.085938,151.606979 324.629639,150.104599 
	C325.263855,148.352173 326.294739,146.747833 327.035095,145.028275 
	C328.173004,142.385315 328.611206,138.690857 333.234497,141.755081 
z"/>
<path fill="#000000" opacity="1.000000" stroke="none" 
	d="
M315.866638,177.362610 
	C311.936462,175.357010 308.008484,173.037796 304.127441,170.359985 
	C306.989349,167.757538 309.804352,165.513641 312.596771,163.287750 
	C316.317169,166.658066 317.871857,173.428696 315.866638,177.362610 
z"/>
<path fill="#000000" opacity="1.000000" stroke="none" 
	d="
M317.326691,148.025360 
	C313.201324,150.850174 313.512604,152.034821 308.964172,141.596008 
	C313.437469,140.445572 317.749573,139.336578 322.414612,138.136826 
	C323.233124,143.112381 321.064453,145.884979 317.326691,148.025360 
z"/>
<path fill="#000000" opacity="1.000000" stroke="none" 
	d="
M285.952454,159.369858 
	C288.558136,162.444122 291.112762,165.870560 293.544312,169.627609 
	C288.860748,171.003311 284.300354,172.048401 278.878204,173.290955 
	C281.615051,168.003357 283.758240,163.862686 285.952454,159.369858 
z"/>
<path fill="#000000" opacity="1.000000" stroke="none" 
	d="
M265.231384,154.852417 
	C265.258087,151.952377 265.618378,148.930435 266.063110,145.486313 
	C268.248901,146.582886 270.350250,148.101639 273.198181,150.160019 
	C269.934692,152.114090 267.749847,153.422318 265.231384,154.852417 
z"/>
<path fill="#000000" opacity="1.000000" stroke="none" 
	d="
M296.705566,158.705795 
	C296.484558,158.495117 296.452209,158.238159 296.601990,157.638626 
	C297.071930,157.583786 297.359772,157.871521 297.647614,158.159256 
	C297.396484,158.326019 297.145386,158.492767 296.705566,158.705795 
z"/>
<path fill="#FFFFFF" opacity="1.000000" stroke="none" 
	d="
M308.076477,119.398941 
	C308.712158,119.444496 309.293579,119.833755 309.896545,120.530350 
	C309.286133,120.472672 308.654144,120.107666 308.076477,119.398941 
z"/>
<path fill="#000000" opacity="1.000000" stroke="none" 
	d="
M281.997375,154.998367 
	C281.994354,154.997604 281.977051,154.916901 281.988647,154.961548 
	C282.000275,155.006210 282.000366,154.999130 281.997375,154.998367 
z"/>
<path fill="#000000" opacity="1.000000" stroke="none" 
	d="
M250.117798,236.032211 
	C255.372131,237.241867 259.017303,241.794418 258.998962,246.637375 
	C258.985229,250.266373 255.288834,255.647827 252.285370,256.411530 
	C245.716187,258.081909 242.369492,254.552094 242.665970,247.857346 
	C242.914169,242.252686 243.362366,237.607605 250.117798,236.032211 
z"/>
<path fill="#000000" opacity="1.000000" stroke="none" 
	d="
M404.507751,257.010559 
	C402.775757,256.086853 401.421173,255.207596 400.066589,254.328339 
	C402.034576,252.571732 403.751831,250.227478 406.050812,249.246628 
	C407.852448,248.477921 410.374207,249.397049 413.052002,249.602921 
	C411.407654,254.300293 410.488403,258.363434 404.507751,257.010559 
z"/>
<path fill="#000000" opacity="1.000000" stroke="none" 
	d="
M454.178223,249.074203 
	C455.193817,249.037369 456.209442,249.000519 457.994171,248.972687 
	C464.302338,248.375122 460.631042,252.211151 461.187683,254.007843 
	C460.351074,255.015411 459.514465,256.022980 457.986633,257.045227 
	C456.205505,257.435730 455.115601,257.811584 454.025696,258.187439 
	C454.025696,258.187439 453.560791,258.049866 453.236023,257.762634 
	C452.606812,257.379791 452.302338,257.284149 451.997864,257.188538 
	C451.997864,257.188538 451.546936,257.050140 451.164673,256.671936 
	C448.103485,252.094727 452.082184,251.027237 454.178223,249.074203 
z"/>
<path fill="#2CA1A9" opacity="1.000000" stroke="none" 
	d="
M461.541382,253.931961 
	C460.631042,252.211151 464.302338,248.375122 458.370209,248.909698 
	C457.682098,248.095016 457.387085,247.352310 456.592194,245.351166 
	C459.536438,246.814102 461.917053,247.555206 463.565216,249.085327 
	C464.059143,249.543884 462.508820,252.204376 461.541382,253.931961 
z"/>
<path fill="#2CA1A9" opacity="1.000000" stroke="none" 
	d="
M453.840088,248.927231 
	C452.082184,251.027237 448.103485,252.094727 450.932373,256.630951 
	C447.014984,256.948853 447.782440,254.078033 448.339966,251.815918 
	C448.953033,249.328445 450.201508,247.087631 453.840088,248.927231 
z"/>
<path fill="#2CA1A9" opacity="1.000000" stroke="none" 
	d="
M454.277527,258.388794 
	C455.115601,257.811584 456.205505,257.435730 457.642822,257.122681 
	C456.836609,257.653656 455.682983,258.121918 454.277527,258.388794 
z"/>
<path fill="#2CA1A9" opacity="1.000000" stroke="none" 
	d="
M452.143280,257.364227 
	C452.302338,257.284149 452.606812,257.379791 452.997009,257.722382 
	C452.777863,257.900513 452.513184,257.757355 452.143280,257.364227 
z"/>
<path fill="#23ACB5" opacity="1.000000" stroke="none" 
	d="
M480.403198,216.166458 
	C483.644501,216.249588 484.874481,218.220123 483.412476,220.260208 
	C482.557617,221.453125 479.725006,221.228745 477.782104,221.641968 
	C477.553406,221.035019 477.324677,220.428070 477.095978,219.821121 
	C478.077972,218.631134 479.059967,217.441132 480.403198,216.166458 
z"/>
</svg>